<svg width="50" height="50" viewBox="0 0 50 50" fill="none" xmlns="http://www.w3.org/2000/svg">
<path d="M24.9998 40.3469C33.4436 40.3469 40.3131 33.4774 40.3131 25.0336C40.3131 16.5899 33.4436 9.72055 24.9998 9.72055C16.5561 9.72055 9.68652 16.59 9.68652 25.0337C9.68652 33.4775 16.5561 40.3469 24.9998 40.3469ZM17.6317 36.754V31.5141C17.6317 29.571 18.9816 27.9382 20.7927 27.5018L19.7868 31.525C19.6503 32.0713 19.8221 32.6484 20.2353 33.0309C20.5248 33.2991 20.9005 33.4417 21.2833 33.4417C21.3257 33.4417 21.3682 33.4398 21.4106 33.4363L23.677 37.2137C23.9584 37.6827 24.4528 37.9626 24.9997 37.9626C25.5466 37.9626 26.041 37.6827 26.3224 37.2138L28.5888 33.4364C28.6312 33.4399 28.6737 33.4418 28.7161 33.4418C29.0989 33.4418 29.4747 33.2992 29.7642 33.031C30.1773 32.6485 30.3491 32.0714 30.2126 31.5251L29.2067 27.5019C31.0178 27.9384 32.3677 29.5711 32.3677 31.5142V36.7541C30.2323 38.1013 27.7057 38.8822 24.9996 38.8822C22.2938 38.8821 19.7671 38.1012 17.6317 36.754ZM20.0619 17.7433V16.9332C20.0619 15.5504 21.1869 14.4255 22.5696 14.4255H27.43C28.8128 14.4255 29.9377 15.5505 29.9377 16.9332V17.7433C29.9377 17.7862 29.9028 17.8209 29.8601 17.8209H20.1396C20.0967 17.8209 20.0619 17.7861 20.0619 17.7433ZM20.872 19.2858H29.1276V21.7936C29.1276 22.9092 28.6895 23.9545 27.8939 24.7369C27.0986 25.519 26.0483 25.9396 24.9289 25.9208C22.6919 25.8835 20.872 23.9961 20.872 21.7136V19.2858ZM28.4795 31.902L26.1411 31.1225L27.931 28.4376L28.7916 31.8802C28.7949 31.8936 28.8027 31.9248 28.769 31.956C28.7353 31.9873 28.7048 31.9769 28.6917 31.9727L28.4839 31.9035C28.4824 31.9029 28.481 31.9025 28.4795 31.902ZM21.516 31.9033L21.3079 31.9727C21.2947 31.9769 21.2644 31.9873 21.2306 31.956C21.1969 31.9248 21.2047 31.8935 21.208 31.8802L22.0687 28.4376L23.8585 31.1225L21.5192 31.9023C21.5182 31.9026 21.5171 31.9029 21.516 31.9033ZM24.9998 30.1937L23.1281 27.3863H26.8714L24.9998 30.1937ZM24.9998 32.2861L27.1422 33.0002L25.0664 36.46C25.0597 36.4712 25.0438 36.4977 24.9998 36.4977C24.9559 36.4977 24.94 36.4712 24.9332 36.46L22.8574 33.0003L24.9998 32.2861ZM24.9998 11.1854C32.6358 11.1854 38.8482 17.3977 38.8482 25.0337C38.8482 29.3154 36.8948 33.1491 33.8327 35.6913V31.5141C33.8327 28.6009 31.5935 26.2021 28.746 25.9454C28.8052 25.8918 28.8639 25.8375 28.9211 25.7812C29.9989 24.7212 30.5925 23.305 30.5925 21.7935V19.1003C31.0744 18.8392 31.4025 18.3289 31.4025 17.7432V16.9331C31.4025 14.7426 29.6204 12.9606 27.43 12.9606H22.5696C20.3791 12.9606 18.5971 14.7426 18.5971 16.9331V17.7432C18.5971 18.3289 18.9252 18.8392 19.4071 19.1003V21.7135C19.4071 23.3859 20.1366 24.8998 21.2885 25.9427C18.4245 26.183 16.1669 28.5891 16.1669 31.5141V35.6913C13.1048 33.1491 11.1514 29.3153 11.1514 25.0337C11.1514 17.3977 17.3638 11.1854 24.9998 11.1854Z" fill="black"/>
<path d="M11.8803 12.9517C11.5718 12.6899 11.1097 12.7279 10.8479 13.0362C8.01016 16.3807 6.44727 20.6415 6.44727 25.0338C6.44727 35.2642 14.7703 43.5872 25.0007 43.5872C35.2311 43.5872 43.5541 35.2643 43.5541 25.0338C43.5541 14.8033 35.2311 6.48047 25.0007 6.48047C20.6089 6.48047 16.3485 8.04287 13.0044 10.8801C12.6959 11.1418 12.658 11.604 12.9197 11.9124C13.1814 12.2208 13.6437 12.2588 13.9521 11.9971C17.0318 9.38428 20.9557 7.94531 25.0007 7.94531C34.4233 7.94531 42.0893 15.6112 42.0893 25.0339C42.0893 34.4565 34.4233 42.1224 25.0007 42.1224C15.578 42.1224 7.91211 34.4565 7.91211 25.0339C7.91211 20.9883 9.35137 17.064 11.9649 13.9841C12.2266 13.6756 12.1888 13.2134 11.8803 12.9517Z" fill="black"/>
<path d="M48.6483 20.1345L46.172 19.8258C46.1403 19.8219 46.1148 19.799 46.107 19.7676C45.5825 17.6581 44.7453 15.6448 43.6188 13.7839C43.6018 13.7558 43.6035 13.7213 43.623 13.6962L45.1623 11.7187C45.6394 11.106 45.585 10.2297 45.0358 9.68057L40.3196 4.96436C39.7704 4.41514 38.8942 4.36074 38.2815 4.83779L36.294 6.38467C36.2689 6.4042 36.2345 6.40605 36.2064 6.38906C34.3483 5.27012 32.3396 4.43916 30.2358 3.91934C30.2043 3.91152 30.1813 3.88604 30.1774 3.85439L29.8655 1.35176C29.7694 0.581152 29.1114 0 28.3349 0H21.665C20.8885 0 20.2305 0.581152 20.1345 1.35166L19.8226 3.8543C19.8187 3.88594 19.7957 3.91143 19.7642 3.91924C17.6604 4.43906 15.6517 5.27002 13.7936 6.38896C13.7655 6.40586 13.7311 6.4041 13.706 6.38457L11.7185 4.8377C11.1058 4.36074 10.2296 4.41504 9.68037 4.96426L4.96416 9.68047C4.41504 10.2296 4.36074 11.1058 4.8377 11.7185L6.37686 13.6961C6.39648 13.7213 6.39824 13.7558 6.38125 13.7838C5.25459 15.6448 4.41738 17.6581 3.89287 19.7676C3.88506 19.799 3.85967 19.8218 3.82803 19.8258L1.35166 20.1345C0.581152 20.2306 0 20.8886 0 21.6651V28.3349C0 29.1114 0.581152 29.7694 1.35166 29.8654L3.81104 30.172C3.84268 30.1759 3.86816 30.1988 3.87598 30.2305C4.3957 32.3506 5.23096 34.3744 6.35859 36.2458C6.37539 36.2737 6.37363 36.308 6.3541 36.3332L4.8377 38.2814C4.36074 38.8941 4.41514 39.7704 4.96416 40.3195L9.68037 45.0357C10.2295 45.585 11.1058 45.6393 11.7185 45.1622L13.657 43.6534C13.6822 43.6338 13.7167 43.6321 13.7446 43.649C15.6188 44.7844 17.6471 45.626 19.7729 46.1504C19.8044 46.1582 19.8272 46.1836 19.8312 46.2152L20.1344 48.6482C20.2304 49.4188 20.8885 49.9999 21.665 49.9999H28.3348C29.1113 49.9999 29.7693 49.4188 29.8654 48.6482L30.1687 46.2152C30.1727 46.1836 30.1954 46.1582 30.227 46.1504C30.8528 45.996 31.4784 45.8115 32.0865 45.6021C32.469 45.4705 32.6724 45.0537 32.5406 44.6712C32.409 44.2888 31.9923 44.0854 31.6097 44.2171C31.0428 44.4123 30.4595 44.5842 29.8761 44.7281C29.2601 44.8801 28.7935 45.4049 28.715 46.034L28.4118 48.467C28.4069 48.5059 28.3738 48.5351 28.3348 48.5351H21.665C21.626 48.5351 21.5929 48.5059 21.588 48.467L21.2848 46.034C21.2063 45.4049 20.7397 44.8801 20.1237 44.7281C18.1418 44.2393 16.251 43.4547 14.5035 42.3961C13.96 42.0668 13.2581 42.1075 12.7572 42.4975L10.8187 44.0062C10.788 44.0304 10.7438 44.0275 10.7161 43.9999L6 39.2839C5.97236 39.2562 5.96963 39.2121 5.99365 39.1813L7.51006 37.233C7.89902 36.7333 7.94043 36.0326 7.61318 35.4898C6.56182 33.7452 5.78311 31.8584 5.29863 29.8819C5.14736 29.2646 4.62227 28.7972 3.99219 28.7187L1.53291 28.4121C1.49404 28.4072 1.46484 28.3741 1.46484 28.3351V21.6653C1.46484 21.6263 1.49404 21.5932 1.53291 21.5883L4.00938 21.2796C4.6373 21.2013 5.16182 20.7357 5.31455 20.1212C5.80352 18.1546 6.58398 16.2777 7.63447 14.5426C7.96348 13.999 7.92275 13.2974 7.53291 12.7966L5.99365 10.8189C5.96963 10.7881 5.97246 10.744 6 10.7164L10.7162 6.0002C10.7438 5.97256 10.7879 5.96992 10.8187 5.99385L12.8063 7.54072C13.3058 7.92959 14.0062 7.97109 14.5492 7.64404C16.2815 6.60078 18.1544 5.82617 20.1155 5.3415C20.7313 5.18926 21.1978 4.66455 21.2761 4.03564L21.588 1.53301C21.5929 1.49414 21.626 1.46494 21.665 1.46494H28.3349C28.3739 1.46494 28.407 1.49414 28.4119 1.53301L28.7238 4.03564C28.8022 4.66455 29.2687 5.18926 29.8844 5.3415C31.8455 5.82607 33.7184 6.60078 35.4507 7.64404C35.9938 7.97109 36.6942 7.92949 37.1937 7.54072L39.1812 5.99375C39.2121 5.96973 39.2562 5.97275 39.2837 6.0002L43.9999 10.7164C44.0275 10.744 44.0304 10.7881 44.0062 10.819L42.4669 12.7968C42.0772 13.2976 42.0365 13.9992 42.3655 14.5427C43.4159 16.2777 44.1965 18.1547 44.6854 20.1212C44.8382 20.7357 45.3627 21.2014 45.9906 21.2796L48.467 21.5883C48.5058 21.5932 48.5351 21.6263 48.5351 21.6653V28.3351C48.5351 28.3741 48.5059 28.4072 48.467 28.4121L46.0077 28.7187C45.3776 28.7972 44.8525 29.2646 44.7013 29.8819C44.2168 31.8584 43.438 33.7452 42.3866 35.4898C42.0594 36.0328 42.1009 36.7334 42.4898 37.233L44.0062 39.1813C44.0303 39.2122 44.0275 39.2563 43.9999 39.2839L39.2837 44.0001C39.2561 44.0277 39.212 44.0306 39.1812 44.0064L37.2426 42.4976C36.7417 42.1078 36.0399 42.0671 35.4963 42.3963C35.0785 42.6493 34.6463 42.8901 34.2118 43.1118C33.8515 43.2957 33.7085 43.7368 33.8923 44.0972C34.0761 44.4574 34.5172 44.6003 34.8776 44.4166C35.3437 44.1788 35.8072 43.9205 36.2553 43.6492C36.2833 43.6322 36.3178 43.6341 36.3429 43.6535L38.2813 45.1623C38.8941 45.6395 39.7703 45.5851 40.3194 45.0358L45.0357 40.3196C45.5848 39.7705 45.6392 38.8943 45.1622 38.2815L43.6458 36.3333C43.6263 36.3081 43.6245 36.2738 43.6413 36.2458C44.769 34.3744 45.6043 32.3506 46.1239 30.2306C46.1317 30.199 46.1571 30.1761 46.1889 30.1721L48.6481 29.8655C49.4188 29.7695 49.9998 29.1114 49.9998 28.335V21.6652C50 20.8886 49.4188 20.2306 48.6483 20.1345Z" fill="black"/>
</svg>
