<svg width="48" height="48" viewBox="0 0 48 48" fill="none" xmlns="http://www.w3.org/2000/svg">
<path d="M45.0938 30.25V24.7812C45.0938 22.9164 44.353 21.128 43.0343 19.8094C41.7157 18.4908 39.9273 17.75 38.0625 17.75C36.1977 17.75 34.4093 18.4908 33.0907 19.8094C31.772 21.128 31.0312 22.9164 31.0312 24.7812V26.2992C29.9413 25.7121 28.7734 25.283 27.5625 25.025L24 24.1711V22.6C25.198 21.8204 26.1826 20.7542 26.8647 19.4981C27.5468 18.242 27.9047 16.8356 27.9062 15.4062V13.0625H28.6875C28.8947 13.0625 29.0934 12.9802 29.2399 12.8337C29.3864 12.6872 29.4688 12.4885 29.4688 12.2812V9.15625C29.4661 6.87787 28.5598 4.69358 26.9487 3.08252C25.3377 1.47146 23.1534 0.565188 20.875 0.5625H17.75C15.4716 0.565188 13.2873 1.47146 11.6763 3.08252C10.0652 4.69358 9.15894 6.87787 9.15625 9.15625V12.2812C9.15625 12.4885 9.23856 12.6872 9.38507 12.8337C9.53159 12.9802 9.7303 13.0625 9.9375 13.0625H10.7188V15.4062C10.7203 16.8356 11.0782 18.242 11.7603 19.4981C12.4424 20.7542 13.427 21.8204 14.625 22.6V24.1711L11.0609 25.025C8.09511 25.6733 5.43883 27.3131 3.53028 29.674C1.62173 32.035 0.574911 34.9759 0.5625 38.0117V47.4375H45.0938C45.7154 47.4375 46.3115 47.1906 46.751 46.751C47.1906 46.3115 47.4375 45.7154 47.4375 45.0938V32.5938C47.4375 31.9721 47.1906 31.376 46.751 30.9365C46.3115 30.4969 45.7154 30.25 45.0938 30.25ZM32.5938 24.7812C32.5938 23.3308 33.1699 21.9398 34.1955 20.9143C35.2211 19.8887 36.6121 19.3125 38.0625 19.3125C39.5129 19.3125 40.9039 19.8887 41.9295 20.9143C42.9551 21.9398 43.5312 23.3308 43.5312 24.7812V30.25H42.75V24.7812C42.75 23.538 42.2561 22.3458 41.3771 21.4667C40.498 20.5876 39.3057 20.0938 38.0625 20.0938C36.8193 20.0938 35.627 20.5876 34.7479 21.4667C33.8689 22.3458 33.375 23.538 33.375 24.7812V30.25H32.5938V24.7812ZM41.1875 30.25H34.9375V24.7812C34.9375 23.9524 35.2667 23.1576 35.8528 22.5715C36.4388 21.9855 37.2337 21.6562 38.0625 21.6562C38.8913 21.6562 39.6862 21.9855 40.2722 22.5715C40.8583 23.1576 41.1875 23.9524 41.1875 24.7812V30.25ZM31.0312 30.25C30.4096 30.25 29.8135 30.4969 29.374 30.9365C28.9344 31.376 28.6875 31.9721 28.6875 32.5938V45.0938C28.6901 45.3605 28.7387 45.6248 28.8312 45.875H24.9375L28.4531 26.8906C29.3598 27.1906 30.2258 27.6018 31.0312 28.1148V30.25ZM19.3125 28.125L20.1883 28.8281L20.3055 29.8805L19.3125 30.2078L18.3195 29.8781L18.4367 28.8258L19.3125 28.125ZM18.1406 31.4664L19.0648 31.7727C19.2246 31.8257 19.3973 31.8257 19.557 31.7727L20.4813 31.4664L21.618 41.682L19.3125 43.9891L17.0055 41.682L18.1406 31.4664ZM20.6766 27.2172L23.3414 25.618L25.0773 26.0516L23.0398 29.1078L20.6766 27.2172ZM10.7188 9.15625C10.721 7.29214 11.4625 5.50504 12.7807 4.18692C14.0988 2.86879 15.8859 2.12727 17.75 2.125H20.875C22.7391 2.12727 24.5262 2.86879 25.8443 4.18692C27.1625 5.50504 27.904 7.29214 27.9062 9.15625V11.5H27.0648C26.7133 11.5007 26.3661 11.422 26.0491 11.2698C25.7322 11.1177 25.4537 10.8959 25.2344 10.6211L23.0469 7.88672C22.9737 7.79519 22.8808 7.7213 22.7752 7.67053C22.6696 7.61975 22.5539 7.59338 22.4367 7.59338C22.3195 7.59338 22.2038 7.61975 22.0982 7.67053C21.9926 7.7213 21.8998 7.79519 21.8266 7.88672L20.5766 9.44922C20.0656 10.0905 19.4164 10.608 18.6773 10.9631C17.9383 11.3182 17.1285 11.5018 16.3086 11.5H10.7188V9.15625ZM12.2812 15.4062V13.0625H16.3086C17.3635 13.065 18.4054 12.829 19.3562 12.372C20.3071 11.915 21.1422 11.2488 21.7992 10.4234L22.4375 9.625L24.0141 11.5961C24.5976 12.326 25.4247 12.8212 26.3438 12.9906V15.4062C26.3438 17.2711 25.603 19.0595 24.2843 20.3781C22.9657 21.6967 21.1773 22.4375 19.3125 22.4375C17.4477 22.4375 15.6593 21.6967 14.3407 20.3781C13.022 19.0595 12.2812 17.2711 12.2812 15.4062ZM19.3125 24C20.3824 23.9986 21.4424 23.7961 22.4375 23.4031V24.3406L19.3125 26.2156L16.1875 24.3406V23.4031C17.1826 23.7961 18.2426 23.9986 19.3125 24ZM15.282 25.618L17.9469 27.2172L15.5836 29.1078L13.5461 26.0516L15.282 25.618ZM2.125 38.0117C2.13613 35.5497 2.91827 33.1529 4.36157 31.1582C5.80486 29.1636 7.83678 27.6711 10.1719 26.8906L13.6875 45.875H9.9375V37.2812C9.9375 37.0741 9.85519 36.8753 9.70868 36.7288C9.56216 36.5823 9.36345 36.5 9.15625 36.5C8.94905 36.5 8.75034 36.5823 8.60382 36.7288C8.45731 36.8753 8.375 37.0741 8.375 37.2812V45.875H2.125V38.0117ZM15.275 45.875L11.6813 26.4891L11.9219 26.4375L14.7523 30.6836C14.8125 30.7737 14.8907 30.8503 14.982 30.9085C15.0733 30.9667 15.1758 31.0053 15.2828 31.0219C15.3236 31.0283 15.3649 31.0315 15.4062 31.0312C15.5837 31.0313 15.7559 30.971 15.8945 30.8602L16.7109 30.2062L15.4109 41.882C15.398 41.9986 15.4114 42.1165 15.4502 42.2271C15.489 42.3377 15.5522 42.4382 15.6352 42.5211L18.7602 45.6461C18.9067 45.7926 19.1053 45.8748 19.3125 45.8748C19.5197 45.8748 19.7183 45.7926 19.8648 45.6461L22.9898 42.5211C23.0728 42.4382 23.136 42.3377 23.1748 42.2271C23.2136 42.1165 23.227 41.9986 23.2141 41.882L21.9141 30.2062L22.7305 30.8602C22.8691 30.971 23.0413 31.0313 23.2188 31.0312C23.2588 31.0313 23.2987 31.0281 23.3383 31.0219C23.4453 31.0053 23.5478 30.9667 23.6391 30.9085C23.7304 30.8503 23.8086 30.7737 23.8688 30.6836L26.6992 26.4383L26.9398 26.4898L23.35 45.875H15.275ZM45.875 45.0938C45.875 45.3009 45.7927 45.4997 45.6462 45.6462C45.4997 45.7927 45.3009 45.875 45.0938 45.875H31.0312C30.824 45.875 30.6253 45.7927 30.4788 45.6462C30.3323 45.4997 30.25 45.3009 30.25 45.0938V32.5938C30.25 32.3865 30.3323 32.1878 30.4788 32.0413C30.6253 31.8948 30.824 31.8125 31.0312 31.8125H45.0938C45.3009 31.8125 45.4997 31.8948 45.6462 32.0413C45.7927 32.1878 45.875 32.3865 45.875 32.5938V45.0938Z" fill="black"/>
<path d="M38.0624 34.9375C37.5102 34.9364 36.9755 35.1308 36.5529 35.4863C36.1303 35.8418 35.8471 36.3353 35.7535 36.8795C35.66 37.4237 35.762 37.9835 36.0416 38.4597C36.3212 38.9359 36.7603 39.2978 37.2812 39.4812V43.5312C37.2812 43.7384 37.3635 43.9371 37.51 44.0836C37.6565 44.2302 37.8552 44.3125 38.0624 44.3125C38.2696 44.3125 38.4684 44.2302 38.6149 44.0836C38.7614 43.9371 38.8437 43.7384 38.8437 43.5312V39.4812C39.3645 39.2978 39.8036 38.9359 40.0832 38.4597C40.3629 37.9835 40.4649 37.4237 40.3713 36.8795C40.2778 36.3353 39.9946 35.8418 39.572 35.4863C39.1494 35.1308 38.6146 34.9364 38.0624 34.9375ZM38.0624 38.0625C37.9079 38.0625 37.7569 38.0167 37.6284 37.9308C37.4999 37.845 37.3998 37.7229 37.3407 37.5802C37.2815 37.4374 37.2661 37.2804 37.2962 37.1288C37.3263 36.9773 37.4008 36.8381 37.51 36.7288C37.6193 36.6195 37.7585 36.5451 37.91 36.515C38.0616 36.4848 38.2187 36.5003 38.3614 36.5594C38.5042 36.6186 38.6262 36.7187 38.712 36.8472C38.7979 36.9757 38.8437 37.1267 38.8437 37.2812C38.8437 37.4884 38.7614 37.6871 38.6149 37.8336C38.4684 37.9802 38.2696 38.0625 38.0624 38.0625Z" fill="black"/>
</svg>
