<svg width="50" height="50" viewBox="0 0 50 50" fill="none" xmlns="http://www.w3.org/2000/svg">
<path d="M25 0C11.215 0 0 11.215 0 25C0 31.0375 2.15167 36.5817 5.72833 40.9067C5.7375 40.9192 5.73833 40.935 5.74833 40.9467C8.33083 44.0608 11.5742 46.4483 15.1883 47.9908C15.23 48.0083 15.2708 48.0275 15.3125 48.045C15.605 48.1683 15.9008 48.2825 16.1975 48.3942C16.3142 48.4383 16.4308 48.4833 16.5492 48.5258C16.805 48.6175 17.0625 48.7042 17.3217 48.7875C17.4875 48.8408 17.6533 48.8933 17.8208 48.9433C18.05 49.0117 18.28 49.0775 18.5117 49.14C18.715 49.195 18.92 49.2458 19.125 49.295C19.3325 49.345 19.5408 49.395 19.75 49.4392C19.9833 49.4892 20.2192 49.5333 20.4558 49.5767C20.6458 49.6117 20.835 49.6483 21.0267 49.6792C21.2892 49.7217 21.5533 49.755 21.8183 49.7892C21.9892 49.8108 22.1592 49.8358 22.3308 49.8542C22.6308 49.8858 22.9333 49.9083 23.2367 49.9292C23.3775 49.9392 23.5175 49.9542 23.6592 49.9617C24.1017 49.9867 24.5492 50 25 50C25.4508 50 25.8983 49.9867 26.3425 49.9633C26.4842 49.9558 26.6242 49.9408 26.765 49.9308C27.0683 49.9092 27.3708 49.8875 27.6708 49.8558C27.8425 49.8375 28.0125 49.8125 28.1833 49.7908C28.4483 49.7567 28.7125 49.7233 28.975 49.6808C29.1658 49.65 29.3558 49.6133 29.5458 49.5783C29.7817 49.535 30.0175 49.4908 30.2517 49.4408C30.4608 49.3958 30.6683 49.3467 30.8767 49.2967C31.0817 49.2467 31.2867 49.1958 31.49 49.1417C31.7217 49.08 31.9517 49.0133 32.1808 48.945C32.3483 48.895 32.5142 48.8425 32.68 48.7892C32.9392 48.7058 33.1967 48.6192 33.4525 48.5275C33.57 48.485 33.6867 48.44 33.8042 48.3958C34.1017 48.2842 34.3967 48.1692 34.6892 48.0467C34.7308 48.0292 34.7717 48.01 34.8133 47.9925C38.4267 46.45 41.6708 44.0625 44.2533 40.9483C44.2633 40.9367 44.2642 40.92 44.2733 40.9083C47.8483 36.5817 50 31.0375 50 25C50 11.215 38.785 0 25 0ZM35.1308 46.0167C35.1183 46.0225 35.1067 46.0292 35.0942 46.035C34.7967 46.1783 34.4942 46.3133 34.1892 46.445C34.12 46.4742 34.0517 46.5042 33.9825 46.5333C33.7158 46.645 33.4458 46.7508 33.1742 46.8525C33.0608 46.895 32.9475 46.9367 32.8333 46.9767C32.5925 47.0625 32.3508 47.145 32.1067 47.2233C31.955 47.2717 31.8025 47.3175 31.65 47.3625C31.4333 47.4275 31.2158 47.49 30.9958 47.5483C30.8108 47.5975 30.6242 47.6425 30.4375 47.6867C30.2417 47.7333 30.0467 47.7808 29.8492 47.8225C29.6333 47.8683 29.4158 47.9075 29.1992 47.9467C29.0233 47.9792 28.8483 48.0133 28.6708 48.0417C28.4267 48.08 28.18 48.1108 27.9342 48.1417C27.7783 48.1617 27.6233 48.185 27.4658 48.2017C27.185 48.2317 26.9017 48.2508 26.6192 48.2708C26.4933 48.2792 26.3683 48.2933 26.2408 48.3C25.8283 48.3217 25.415 48.3333 25 48.3333C24.585 48.3333 24.1717 48.3217 23.76 48.3C23.6333 48.2933 23.5083 48.28 23.3817 48.2708C23.0983 48.2517 22.8158 48.2317 22.535 48.2017C22.3775 48.185 22.2225 48.1617 22.0667 48.1417C21.8208 48.1108 21.5742 48.08 21.33 48.0417C21.1525 48.0133 20.9775 47.9792 20.8017 47.9467C20.5842 47.9075 20.3667 47.8675 20.1517 47.8225C19.9542 47.7808 19.7583 47.7333 19.5633 47.6867C19.3767 47.6417 19.19 47.5975 19.005 47.5483C18.7858 47.49 18.5675 47.4267 18.3508 47.3625C18.1983 47.3175 18.0458 47.2717 17.8942 47.2233C17.65 47.145 17.4075 47.0625 17.1675 46.9767C17.0533 46.9358 16.94 46.8942 16.8267 46.8525C16.555 46.7508 16.285 46.645 16.0183 46.5333C15.9492 46.505 15.8817 46.475 15.8125 46.4458C15.5075 46.315 15.205 46.1792 14.9067 46.0358C14.8942 46.03 14.8825 46.0242 14.87 46.0175C11.9625 44.6108 9.39417 42.6142 7.31 40.1892C8.92083 34.2575 13.4808 29.4758 19.3475 27.5733C19.4633 27.6442 19.5842 27.7075 19.7033 27.7742C19.7733 27.8133 19.8425 27.855 19.9133 27.8925C20.1617 28.0242 20.4133 28.1475 20.6708 28.2583C20.8683 28.345 21.0725 28.4183 21.2758 28.4933C21.3158 28.5075 21.3558 28.5233 21.3958 28.5375C22.5258 28.9375 23.735 29.1667 25 29.1667C26.265 29.1667 27.4742 28.9375 28.6033 28.5375C28.6433 28.5233 28.6833 28.5075 28.7233 28.4933C28.9267 28.4183 29.1308 28.345 29.3283 28.2583C29.5858 28.1475 29.8375 28.0242 30.0858 27.8925C30.1567 27.8542 30.2258 27.8133 30.2958 27.7742C30.415 27.7075 30.5367 27.6442 30.6533 27.5725C36.52 29.4758 41.0792 34.2575 42.6908 40.1883C40.6067 42.6125 38.0383 44.6092 35.1308 46.0167ZM15.8333 18.3333C15.8333 13.2792 19.9458 9.16667 25 9.16667C30.0542 9.16667 34.1667 13.2792 34.1667 18.3333C34.1667 21.5483 32.4992 24.3775 29.9867 26.0142C29.6583 26.2275 29.3167 26.4183 28.9658 26.585C28.9242 26.605 28.8833 26.6258 28.8417 26.645C26.4283 27.7425 23.5717 27.7425 21.1583 26.645C21.1167 26.6258 21.075 26.605 21.0342 26.585C20.6825 26.4183 20.3417 26.2275 20.0133 26.0142C17.5008 24.3775 15.8333 21.5483 15.8333 18.3333ZM43.9408 38.6025C42.0517 33.0242 37.7417 28.5158 32.235 26.3742C34.4375 24.39 35.8333 21.525 35.8333 18.3333C35.8333 12.36 30.9733 7.5 25 7.5C19.0267 7.5 14.1667 12.36 14.1667 18.3333C14.1667 21.525 15.5625 24.39 17.7658 26.3742C12.2592 28.5167 7.94917 33.0242 6.06 38.6025C3.29917 34.77 1.66667 30.0733 1.66667 25C1.66667 12.1342 12.1342 1.66667 25 1.66667C37.8658 1.66667 48.3333 12.1342 48.3333 25C48.3333 30.0733 46.7008 34.77 43.9408 38.6025Z" fill="black"/>
</svg>
